<svg width="100" height="100" viewBox="0 0 100 100" fill="none" xmlns="http://www.w3.org/2000/svg">
<path d="M83.2931 19.2557C83.2237 18.7507 82.7826 18.4705 82.4164 18.44C82.0529 18.4095 74.934 18.3013 74.934 18.3013C74.934 18.3013 68.9802 12.5196 68.3921 11.9314C67.8039 11.3433 66.6553 11.5208 66.2087 11.654C66.2031 11.6568 65.0906 12.0008 63.2179 12.5806C62.9044 11.5652 62.4439 10.3168 61.7864 9.06276C59.6668 5.01777 56.5623 2.87876 52.8114 2.87321C52.8059 2.87321 52.8031 2.87321 52.7975 2.87321C52.5367 2.87321 52.2787 2.89818 52.0179 2.92037C51.907 2.7872 51.796 2.65681 51.6795 2.52919C50.0454 0.781358 47.9508 -0.0703636 45.44 0.00454354C40.596 0.14326 35.7714 3.6417 31.8596 9.85622C29.1075 14.2286 27.0128 19.7218 26.4191 23.9748C20.8566 25.6977 16.967 26.9017 16.881 26.9295C14.0733 27.8117 13.9845 27.8977 13.6183 30.5445C13.3464 32.5448 6 89.3521 6 89.3521L67.5653 100L94.2489 93.3666C94.2489 93.3666 83.3624 19.7606 83.2931 19.2557ZM60.1357 13.535C58.718 13.9733 57.1061 14.4727 55.3582 15.0137C55.3222 12.5612 55.0309 9.14876 53.8878 6.19964C57.5638 6.896 59.3727 11.0547 60.1357 13.535ZM52.1372 16.0125C48.9107 17.0112 45.39 18.1015 41.8583 19.1946C42.8515 15.391 44.7353 11.604 47.0491 9.12102C47.9091 8.19716 49.1132 7.16788 50.5392 6.57972C51.8792 9.37626 52.1705 13.3352 52.1372 16.0125ZM45.5371 3.22832C46.6746 3.20336 47.6317 3.45305 48.4501 3.99127C47.1407 4.67098 45.8756 5.64755 44.6881 6.92097C41.6114 10.2224 39.2532 15.3466 38.3127 20.2905C35.3802 21.1977 32.5116 22.0883 29.8704 22.9039C31.5378 15.1219 38.0602 3.44472 45.5371 3.22832Z" fill="#95BF47"/>
<path d="M82.4191 18.4428C82.0556 18.4123 74.9367 18.3041 74.9367 18.3041C74.9367 18.3041 68.983 12.5224 68.3948 11.9342C68.1756 11.715 67.8788 11.6013 67.5681 11.5541L67.5708 99.9972L94.2516 93.3666C94.2516 93.3666 83.3651 19.7634 83.2958 19.2585C83.2264 18.7535 82.7825 18.4733 82.4191 18.4428Z" fill="#5E8E3E"/>
<path d="M52.7781 32.162L49.6791 43.756C49.6791 43.756 46.2223 42.1829 42.1246 42.4409C36.1154 42.821 36.0516 46.6108 36.1126 47.5623C36.44 52.7476 50.0814 53.8795 50.8471 66.0256C51.4492 75.5804 45.7784 82.1167 37.608 82.6327C27.8007 83.2514 22.4018 77.4669 22.4018 77.4669L24.4798 68.6279C24.4798 68.6279 29.9148 72.7284 34.2649 72.4537C37.1058 72.2734 38.1212 69.9623 38.0186 68.3283C37.5913 61.5644 26.4829 61.9639 25.781 50.8499C25.1901 41.4976 31.3324 32.0205 44.8851 31.166C50.1064 30.8303 52.7781 32.162 52.7781 32.162Z" fill="white"/>
</svg>
